<svg width="300" height="277" viewBox="0 0 300 277" xmlns="http://www.w3.org/2000/svg">
    <path d="M122.041 52.2581H156.774L34.4951 276.774H0L122.041 52.2581Z" fill="#30BF75"/>
    <path d="M122.041 52.2581H156.774L34.4951 276.774H0L122.041 52.2581Z" fill="url(#logo_gradient)"/>
    <path d="M114.043 257.419H79.5483L201.59 32.9032L219.677 0H222.581L232.258 32.9032L233.687 37.7419L114.043 257.419Z" fill="#30BF75"/>
    <path d="M114.043 257.419H79.5483L201.59 32.9032L219.677 0H222.581L232.258 32.9032L233.687 37.7419L114.043 257.419Z" fill="url(#logo_gradient)"/>
    <path fill-rule="evenodd" clip-rule="evenodd" d="M238.731 199.347H163.091L181.587 165.387H229.46L213.476 106.834L239.944 58.2376L300 257.419H254.583L238.731 199.347Z" />
    <defs>
        <linearGradient id="logo_gradient" x1="116.844" y1="0" x2="116.844" y2="276.774" gradientUnits="userSpaceOnUse">
            <stop stop-color="#30BF75"/>
            <stop offset="1" stop-color="#117340" stop-opacity="0.8"/>
        </linearGradient>
    </defs>
</svg>
